<svg width="176" height="177" viewBox="0 0 176 177" fill="none" xmlns="http://www.w3.org/2000/svg">
<g filter="url(#filter0_d_105:96)">
<path d="M82.0002 160.656C103.504 160.656 123.664 152.4 138.832 137.232C154 122.064 162.256 101.904 162.256 80.4002C162.256 58.8962 154 38.7362 138.832 23.5682C123.664 8.40016 103.504 0.144165 82.0002 0.144165C60.4962 0.144165 40.3361 8.40016 25.1681 23.5682C10.0001 38.7362 1.74414 58.8962 1.74414 80.4002C1.74414 101.904 10.0001 122.064 25.1681 137.232C40.3361 152.4 60.4962 160.656 82.0002 160.656ZM86.6081 147.024C85.0721 147.216 83.5362 147.216 82.0002 147.216C79.8882 147.216 77.7762 147.024 75.6642 146.832C68.7522 136.08 63.5682 124.56 60.4962 112.464H94.4802C95.6322 115.344 97.7442 118.032 100.24 119.76C96.9762 129.36 92.3681 138.384 86.6081 147.024ZM104.848 143.184C108.496 136.464 111.376 129.744 113.68 122.64C119.248 121.488 123.664 117.648 125.776 112.464H140.56C132.88 126.48 120.016 137.424 104.848 143.184ZM148.624 80.4002C148.624 86.7362 147.664 92.8802 146.128 98.8322H125.392C124.24 96.3362 122.32 94.0322 120.016 92.3042C120.4 88.0802 120.592 83.8562 120.592 79.6322C120.592 73.6802 120.208 67.7282 119.44 61.9682H145.936C147.856 67.7282 148.624 74.0642 148.624 80.4002ZM140.56 48.3362H117.136C114.64 37.7762 110.992 27.7922 106 18.1922C120.592 23.7602 132.88 34.7042 140.56 48.3362ZM107.152 79.6322C107.152 82.8962 106.96 86.1602 106.768 89.4242C101.392 90.5762 96.9762 94.0322 94.8642 98.8322H57.8081C57.0401 93.0722 56.4641 87.1202 56.4641 81.3602C56.4641 77.7122 56.6562 74.0642 57.0402 70.4162C62.0322 69.4562 66.0642 66.1922 68.5602 61.9682H106C106.768 67.7282 107.152 73.6802 107.152 79.6322ZM77.0081 13.9682C78.7361 13.7762 80.4642 13.7762 82.0002 13.7762C83.9202 13.7762 85.8402 13.7762 87.7602 13.9682C94.6722 24.7202 99.8562 36.2402 102.928 48.3362H69.5202C68.3682 45.0722 66.2561 42.1922 63.5681 40.0802C67.0241 30.8642 71.4401 22.2242 77.0081 13.9682ZM58.7681 17.8082C55.5041 23.9522 52.6242 30.4802 50.3202 37.0082C44.3682 38.1602 39.5681 42.5762 37.6481 48.1442H23.6322C31.1202 34.5122 43.6001 23.5682 58.7681 17.8082ZM15.3762 80.4002C15.3762 74.0642 16.3361 67.7282 18.0641 61.9682H38.9922C40.1442 64.0802 41.8722 66.0002 43.7922 67.5362C43.4082 72.1442 43.0241 76.7522 43.0241 81.3602C43.0241 87.3122 43.4082 93.0722 44.1762 98.8322H18.0641C16.1441 92.8802 15.3762 86.7362 15.3762 80.4002ZM46.4802 112.272C48.9762 122.64 52.6242 132.816 57.6162 142.416C43.0242 136.656 30.9282 125.904 23.4401 112.272H46.4802Z" fill="#F4A261"/>
</g>
<defs>
<filter id="filter0_d_105:96" x="0.744141" y="0.144165" width="174.512" height="176.512" filterUnits="userSpaceOnUse" color-interpolation-filters="sRGB">
<feFlood flood-opacity="0" result="BackgroundImageFix"/>
<feColorMatrix in="SourceAlpha" type="matrix" values="0 0 0 0 0 0 0 0 0 0 0 0 0 0 0 0 0 0 127 0" result="hardAlpha"/>
<feOffset dx="6" dy="9"/>
<feGaussianBlur stdDeviation="3.5"/>
<feComposite in2="hardAlpha" operator="out"/>
<feColorMatrix type="matrix" values="0 0 0 0 0 0 0 0 0 0 0 0 0 0 0 0 0 0 0.32 0"/>
<feBlend mode="normal" in2="BackgroundImageFix" result="effect1_dropShadow_105:96"/>
<feBlend mode="normal" in="SourceGraphic" in2="effect1_dropShadow_105:96" result="shape"/>
</filter>
</defs>
</svg>
